<svg width="50" height="50" viewBox="0 0 50 50" fill="none" xmlns="http://www.w3.org/2000/svg">
<g clip-path="url(#clip0_262_2467)">
<rect width="50" height="50" rx="11" fill="url(#paint0_linear_262_2467)"/>
<path fill-rule="evenodd" clip-rule="evenodd" d="M0.639319 74.0363C0.577017 74.1291 0.529973 74.1546 0.454955 74.2385C-0.00277662 74.7534 -0.447794 75.2608 -0.764392 75.8952C-1.96848 78.3098 -0.0866942 79.0548 2.05447 78.4331C2.88221 78.1928 3.64001 77.8711 4.39272 77.4731C4.48681 77.6524 4.56564 77.8164 4.6877 77.9843C5.7087 79.3943 6.78564 79.9436 8.75262 79.6232L17.3859 78.1546C18.0255 78.0466 18.3675 78.5424 18.9143 78.5679L20.524 78.6416C22.0574 78.6416 23.3962 78.3873 24.5507 77.6168C24.8737 77.4007 25.1483 76.8399 25.3327 76.4915C25.4967 76.4915 25.6607 76.4928 25.8247 76.4928C26.2303 76.4928 26.861 76.4102 27.2628 76.3873C28.4936 76.3186 30.9424 75.9766 32.1656 75.6422C32.8471 75.4553 32.6691 75.6041 33.2158 75.9385C33.638 76.1966 34.5267 76.1063 35.015 76.0376C35.3405 75.9919 35.5782 75.9296 35.8745 75.8456C36.3716 75.7045 36.823 75.4604 37.2426 75.1794C38.8523 74.1063 38.0538 73.7706 40.003 74.0961C40.6146 74.1978 41.1498 74.3021 41.7335 74.4356C42.6044 74.6339 44.2332 75.0205 45.1041 75.1679C46.532 75.4108 47.478 75.3663 48.1913 74.4114C48.2905 74.2779 48.499 73.9206 48.5397 73.7401C48.6096 73.4286 48.354 73.2607 48.1748 73.0789C48.0006 72.9034 47.8162 72.7712 47.6306 72.6059C47.4983 72.4877 47.1233 72.2741 47.0788 72.1062C47.2453 72.0922 49.6891 71.3383 49.9777 71.2518C50.9491 70.9619 51.9689 70.7305 52.9237 70.4101C53.4323 70.2397 53.9854 69.6396 54.1685 69.1297C54.7572 67.4882 53.9816 65.9599 52.9415 65.1207C52.4355 64.7113 52.0006 64.8982 51.3229 64.916C50.6071 64.9338 49.7857 65.108 49.1029 65.2212C47.1449 65.5479 44.7825 66.0426 42.8193 66.4787C41.7767 66.7113 40.7315 66.9275 39.6635 67.075L38.556 67.2314C36.9705 67.1716 34.7149 64.7698 33.6799 64.5282C33.8045 64.3426 34.0029 64.1837 34.1466 64.012C34.2216 63.9217 34.3055 63.8505 34.3907 63.7653L35.0913 62.9923C35.4803 62.56 36.036 61.6407 36.2254 61.1448C36.3526 60.8117 36.4695 60.3374 36.2407 59.9662C36.172 59.8543 36.0716 59.8009 35.9953 59.6852C36.0754 59.5326 36.1924 59.3978 36.3004 59.2541C37.2273 58.0195 38.3386 56.392 38.823 54.9362C38.9947 54.4213 39.1346 54.3526 39.296 53.9012C39.7322 52.6857 40.0093 50.3996 40.0271 48.9488C40.0297 48.7683 40.0551 48.7556 40.064 48.5992C40.1263 47.4358 39.989 46.8509 39.8135 45.7968C39.6711 44.9398 39.1384 42.2494 38.5408 41.7141C38.865 42.0078 39.6711 42.8101 39.7258 40.8775C40.1886 39.0109 36.1949 34.2416 36.0309 32.754C36.0271 32.7171 37.886 30.2009 37.886 30.1004C37.9419 30.1271 38.4683 35.1368 40.8739 29.3439C41.1321 28.5658 41.2058 27.9364 41.3151 27.1201C41.3774 26.6586 41.324 26.0317 41.3253 25.5854C41.3279 24.4869 40.8511 23.1861 40.2865 22.3444C39.9648 21.8638 39.7118 21.579 39.2795 21.2115C39.0913 21.0513 38.1708 20.4499 37.9228 20.4296C37.9228 19.9286 38.0843 19.8854 38.0246 19.2395C37.9279 18.1956 37.4333 17.0754 36.7213 16.3685L36.0194 15.7022C35.9432 15.6298 35.9076 15.6158 35.8262 15.5446L35.2655 15.0525C34.7874 14.591 34.2127 14.2184 33.657 13.8548C32.5191 13.1097 31.226 12.5909 29.8795 12.0556C29.2183 11.7924 28.5851 11.5064 28.0104 11.1542C27.5781 10.8897 27.1687 10.5985 26.7949 10.2654C26.43 9.9399 26.0803 9.6055 25.7612 9.22914C25.4446 8.85405 25.1242 8.47261 24.8711 8.04921C24.3104 7.10577 23.8552 6.02375 23.8565 4.88959C23.8565 4.381 23.8578 3.50368 23.4623 3.17945C23.2297 2.98873 22.7554 2.85014 22.3701 2.9811C21.3402 3.33203 20.8596 4.34031 20.4858 5.27103C20.1184 6.18268 19.7687 7.80636 19.9035 8.84515C20.0344 9.85343 20.3002 10.2501 20.4909 11.0652L19.55 10.4968C17.9848 9.52412 16.7171 8.10643 16.0255 6.37467C15.8767 6.00086 15.7724 5.64357 15.625 5.26595C15.4775 4.88832 15.288 4.559 14.9066 4.44076C13.6097 4.03897 13.0655 5.90804 12.9421 6.88326C12.8341 7.74024 12.9014 8.85405 13.124 9.69704C13.2257 10.0848 13.3935 10.4752 13.5461 10.8185C13.7559 11.2902 14.0814 11.8764 14.3929 12.287C14.4781 12.3989 14.6701 12.6202 14.7031 12.7486C14.6281 12.713 14.5671 12.6977 14.4806 12.6558L13.8678 12.3214C13.3414 12.0035 12.8976 11.6195 12.4081 11.2559C12.047 10.9876 11.7787 10.5896 11.4214 10.3137C11.0629 10.0365 10.2733 9.08673 9.36292 10.109C8.36481 11.2304 10.2568 14.7041 11.0998 15.5471C11.6935 16.1409 12.1449 16.5109 12.8315 16.9724C12.965 17.0627 13.143 17.1187 13.2308 17.2394C11.738 17.2394 10.8963 16.3685 10.1894 16.6889C9.70749 16.9076 9.43413 17.3081 9.52059 17.8981C9.57908 18.2935 9.96815 18.8542 10.1792 19.1339C10.8264 19.9947 11.2231 20.3228 12.2365 20.8301C12.6599 21.0424 13.1049 21.2192 13.6364 21.3247C13.9123 21.3794 15.082 21.5714 15.3351 21.4506C15.2931 21.9541 13.6491 24.0647 13.302 24.6445C13.0604 25.0489 12.459 25.8791 12.6624 26.5784C12.8671 27.2854 13.4113 27.4698 14.0725 27.4507C14.2429 27.4456 14.2352 27.4176 14.3865 27.4151C14.3369 28.0101 14.1132 29.2841 14.0292 29.9695C13.9797 30.3725 13.9186 30.8722 13.8957 31.3083L13.9313 32.7464C14.8023 37.3237 12.3242 37.5309 12.0114 38.6486C11.6808 38.9792 11.3769 39.283 11.0464 39.6136C9.90966 40.7503 8.94207 42.1248 8.14231 43.5145L7.79138 44.1464C7.22303 45.1255 5.91341 48.4949 5.56756 49.7104C5.24461 50.8459 5.13781 51.98 5.36922 53.1307C5.59554 54.2572 5.18231 55.3609 4.84155 56.3857L3.8943 59.333C3.73791 59.8225 3.5866 60.3324 3.43784 60.8409C3.14922 61.834 2.85805 62.8728 2.56942 63.8658L1.37296 68.0019C1.32465 68.2117 1.34753 68.1939 1.18733 68.3083C0.987704 68.452 0.822412 68.5804 0.625333 68.7279C-0.658859 69.6917 -1.9812 70.6529 -3.12552 71.782C-3.45229 72.1037 -3.79559 72.4241 -4.0893 72.7827C-4.61951 73.4324 -4.38937 74.3478 -3.51714 74.6098C-2.81274 74.8208 -1.57178 74.625 -0.894082 74.4699C-0.524082 74.3847 0.404096 74.0541 0.635505 74.0351L0.639319 74.0363ZM28.0969 69.4463C25.9277 70.0795 24.7821 69.4552 24.7821 69.4552C24.7821 69.4552 24.2418 68.953 23.0593 68.5703C21.8768 68.1888 21.4763 67.4908 22.0256 66.7546C22.5748 66.0184 23.1521 66.335 23.1521 66.335C23.1521 66.335 26.402 66.363 28.6919 65.7107C30.0054 66.7075 31.2705 66.9122 31.2705 66.9122C31.2705 66.9122 29.3798 68.0667 28.0956 69.445L28.0969 69.4463Z" fill="#10222E"/>
<path fill-rule="evenodd" clip-rule="evenodd" d="M20.122 54.4289C20.7374 53.7601 21.8868 51.7461 22.286 50.9565C23.7749 48.013 24.356 45.0034 23.1074 41.8476C22.6281 40.6346 22.2021 40.1324 21.3871 39.3594C21.1582 39.1419 20.8391 38.9449 20.6039 38.7147C21.0069 38.8075 21.8741 39.2526 22.2072 39.4852C22.6548 39.7993 23.0667 40.2468 23.4011 40.6779C25.7419 43.6938 24.9485 47.7473 23.5448 50.9883C23.424 51.2667 23.26 51.5452 23.1506 51.8249C24.2962 52.0042 25.2766 50.2966 25.7788 49.6545C25.6682 50.6526 25.3846 51.5833 25.9339 52.4556C26.4196 53.2248 27.4152 53.2363 28.3535 52.8192C29.564 52.2801 30.6829 51.0786 31.2525 49.8923L31.4953 49.3951C31.5271 49.3506 31.5208 49.3583 31.55 49.3303C31.5348 50.5382 31.2372 52.6336 32.1807 53.193C33.175 53.783 34.5049 51.9788 34.8381 51.4791C36.065 49.6405 36.964 47.1967 36.9538 44.3931C37.3263 44.5165 38.3982 45.5158 38.7301 46.0422C38.7313 46.0448 38.772 46.1071 38.772 46.1071C38.8432 46.1948 38.7911 46.1401 38.8521 46.1834C38.7326 44.8979 38.3334 43.2043 37.9456 42.0574C37.2399 39.976 36.894 39.8056 36.7605 39.3733C37.1979 39.4585 38.0625 40.8355 38.8585 40.8457C38.8114 38.463 36.2278 36.6473 35.2958 33.4292C34.0574 34.1056 32.0586 34.8977 29.9899 32.6943C27.6987 30.2543 28.6053 27.7787 28.7528 26.8633C28.9003 25.9478 30.3141 25.2917 30.5239 24.1118C30.5824 23.7825 31.2309 21.3463 33.0186 20.53C34.0307 20.0049 34.9945 19.9503 36.5495 19.963C37.0123 19.8295 36.8737 18.7856 36.7542 18.4461C36.3956 17.4213 35.6569 16.7512 34.8508 16.1053C33.9925 15.4174 33.339 14.9241 32.3587 14.3519C32.1247 14.2159 31.1343 13.6984 30.9003 13.6806C30.3218 13.7137 29.7178 13.795 29.1202 13.8421C28.0509 13.9247 26.5099 13.8217 25.4444 13.6526L23.8322 13.3449C23.9758 13.5535 24.1818 13.6158 24.3039 13.9196C24.5989 14.652 23.4304 15.242 22.8747 15.5217C22.4043 15.7582 20.2784 16.647 20.1144 16.8835C20.3852 16.9661 21.1888 17.1021 21.3045 17.2115C20.3445 17.6273 18.4398 18.6495 18.2186 19.4213L19.3095 19.476C19.218 19.654 19.1124 19.7659 18.9942 19.9185C17.8003 21.4557 17.8855 21.2103 17.3743 23.4532C17.19 24.2593 17.0336 25.0692 16.8543 25.8817C16.689 26.6319 16.3838 27.6033 16.5593 28.3674C16.8276 28.3051 16.8022 28.1818 16.9878 28.1119C16.9776 28.9129 16.2847 30.6358 16.6178 31.85C16.8645 32.7489 17.6464 32.337 17.8867 32.721C18.3381 33.4432 17.4328 35.2487 19.0272 36.8762C19.56 37.4191 20.1474 37.9722 20.937 38.1553C21.2333 38.2239 22.3051 38.4261 22.5174 38.6766C22.4068 38.8241 22.3623 38.894 22.1296 38.9487C21.9707 38.9855 21.7101 39.0313 21.5829 39.0122C21.5232 39.0033 20.1093 38.1311 18.7653 37.9556C17.1518 37.7446 15.6807 38.2939 14.6762 38.997C13.6324 39.7268 13.0653 40.5762 12.3507 41.8298C12.1295 42.2176 10.5122 45.0797 11.1225 45.4904C11.6628 45.8312 13.3959 44.3346 13.7608 43.9748L14.4855 43.306C14.3762 43.7231 14.2096 44.1363 14.0876 44.5851C12.7042 49.6214 16.8746 46.2139 18.511 44.7962C18.6585 44.6678 18.8302 44.519 18.9522 44.3957C19.1099 44.2355 19.2091 44.1134 19.3744 44.0091C19.34 44.7174 19.1506 46.4135 20.0724 46.3309C20.6585 46.2787 21.4965 45.3264 21.7851 45.0022C21.7609 45.2997 21.5702 45.91 21.4888 46.2342C21.3871 46.6398 21.2892 47.0327 21.1875 47.4396C21.0883 47.8414 20.9879 48.2355 20.8849 48.6475C20.7654 49.123 20.6751 49.357 20.5085 49.7778C20.1983 50.5623 18.9115 54.0614 20.122 54.4289Z" fill="#FEFDEF"/>
<path fill-rule="evenodd" clip-rule="evenodd" d="M23.2638 13.2076C23.0019 13.509 22.0559 13.7035 21.5435 13.6946C20.9205 13.6844 20.3203 13.4517 19.8575 13.2127C18.1219 12.3176 16.3241 10.7689 15.3425 9.09311C14.6826 7.96658 14.605 7.05875 14.5516 5.55078C14.5554 5.51009 14.5071 5.54442 14.5071 5.54442C14.2592 5.71098 14.0202 6.6506 13.9858 6.8871C13.7481 8.53239 14.2783 10.301 15.153 11.5649C15.9579 12.7283 17.0386 13.6577 18.2313 14.3799C18.4334 14.502 19.3044 15.0296 19.5358 15.0271C19.546 15.0309 19.5511 15.0335 19.5574 15.0373C19.5638 15.0398 19.5841 15.0487 19.593 15.0525L19.7215 15.1008C19.5638 15.2598 18.8416 15.6514 18.5784 15.7811C17.4862 16.3215 16.928 16.0735 15.7494 15.7073C14.291 15.2534 13.3475 14.7779 12.1524 13.9006C11.7378 13.5967 10.8732 12.8033 10.5655 12.3265C10.4219 12.104 10.3341 11.7569 10.3074 11.8471C10.3125 12.0925 10.7181 13.0881 10.8275 13.3297C11.3322 14.4384 12.0532 15.1441 13.0538 15.8383C14.0125 16.5046 15.1861 16.9699 16.3991 17.1899C16.8683 17.2751 17.3769 17.2713 17.8155 17.3539C17.5447 17.5383 16.6267 17.8332 16.2503 17.9413C15.6527 18.113 15.0564 18.2452 14.3914 18.2999C12.0481 18.4906 11.1059 17.7697 10.6113 17.7303C10.8376 18.9814 12.1358 19.7392 13.387 20.1359C14.4842 20.483 15.6476 20.525 16.7475 20.1219C17.0374 20.0151 17.4137 19.7824 17.6667 19.7239C17.579 19.9464 17.2713 20.2707 17.1238 20.4983C16.9534 20.7615 16.7996 21.0514 16.6254 21.3323C16.0749 22.2237 13.6298 25.6668 13.7366 26.314C14.2274 26.6446 15.6044 25.602 16.0736 25.4494C16.0393 25.7723 15.7519 26.4411 15.6527 26.8111C15.0488 29.0617 14.6928 32.7528 15.0564 35.063C15.1276 35.5169 15.4467 36.7859 15.6451 37.208C15.771 37.4763 15.8371 37.5221 16.1066 37.6429C15.3387 37.9251 14.7195 38.2684 14.0875 38.6486C13.6654 38.9029 13.1339 39.2818 12.7525 39.5933C12.1841 40.0574 11.7137 40.5863 11.2343 41.128C9.64627 42.9169 8.44218 45.0251 7.57758 47.3608C7.32455 48.0435 6.00349 51.5871 6.4396 52.1657C6.85029 52.2407 7.34235 51.5897 7.51527 51.4053C7.60301 51.3112 8.32902 50.4161 8.33538 50.378C8.33029 50.4797 7.20249 52.9324 7.04101 53.3151C6.07723 55.5999 5.54067 57.2974 4.84644 59.6801C4.68751 60.2256 3.86613 62.7685 3.89029 63.1589L3.93098 63.1474C4.21198 62.9923 4.47009 62.2981 4.67479 61.9688C4.93672 61.5479 5.17194 61.1563 5.42369 60.7532C5.93356 59.9357 6.41672 59.1448 6.9304 58.3311C7.4072 57.5745 9.3017 53.9496 9.85861 53.446C9.80648 53.7067 9.37799 54.5243 9.24194 54.8485C8.90881 55.6444 8.31885 56.8015 7.94376 57.6203C7.30294 59.0215 4.74854 63.7679 4.82229 64.663C5.2851 64.6719 6.97617 63.0406 7.21902 62.7914C7.3983 62.607 7.53689 62.4201 7.72761 62.2472C7.95139 62.0425 9.01562 60.7558 9.20888 60.5015C9.52294 60.0921 9.81919 59.7132 10.1294 59.2821C10.7779 58.3781 11.2305 57.6674 11.8103 56.6845C12.071 56.2433 12.3456 55.7576 12.6304 55.3736C12.5681 55.7029 12.3176 56.2255 12.1765 56.523C11.5662 57.8161 11.434 58.4023 10.5897 59.8479C10.1816 60.5472 9.78105 61.2338 9.35256 61.8747C9.12369 62.2167 8.89864 62.4799 8.66469 62.799C8.52864 62.9847 8.05057 63.5886 8.12685 63.8823L8.42057 63.7717C8.61129 63.7209 9.98448 62.5409 10.3138 62.2714C11.0474 61.6725 11.7264 61.0202 12.3876 60.3464L13.2344 59.4741C13.9146 58.6782 14.6076 57.8899 15.2637 56.9426C15.5752 56.4938 15.8765 56.0462 16.1956 55.5948L16.8937 54.6094C16.9649 54.5128 17.0882 54.3806 17.1467 54.2916C16.8479 55.071 16.1333 56.4442 15.7277 57.4092C15.682 57.5199 15.2484 58.4302 15.373 58.5332C15.7862 58.6896 16.6572 58.0755 16.8886 57.9038C17.354 57.5567 17.6642 57.2592 18.0698 56.8396C18.1588 56.7468 18.2516 56.6794 18.3406 56.5853L18.8645 55.9852C19.1366 55.6838 19.9516 54.715 20.1232 54.4264C18.9128 54.0589 20.1995 50.5598 20.5098 49.7753C20.6763 49.3544 20.7666 49.1205 20.8861 48.6449C20.9891 48.233 21.0896 47.8388 21.1887 47.437C21.2905 47.0289 21.3884 46.636 21.4901 46.2317C21.5715 45.9075 21.7622 45.2971 21.7863 44.9996C21.499 45.3238 20.6598 46.2762 20.0737 46.3283C19.1518 46.411 19.3413 44.7148 19.3756 44.0066C19.2103 44.1109 19.1124 44.2329 18.9535 44.3931C18.8314 44.5165 18.6598 44.6652 18.5123 44.7936C16.8759 46.2113 12.7054 49.6189 14.0888 44.5826C14.2121 44.135 14.3774 43.7205 14.4868 43.3035L13.762 43.9723C13.3971 44.3321 11.6641 45.8286 11.1237 45.4879C10.5134 45.0772 12.132 42.2151 12.352 41.8273C13.0665 40.5736 13.6349 39.7243 14.6775 38.9944C15.682 38.2926 17.1543 37.742 18.7666 37.9531C19.8817 38.009 22.1945 39.8679 22.6738 38.7185C22.4615 38.468 21.2345 38.2214 20.937 38.1527C20.1474 37.9696 19.56 37.4165 19.0272 36.8736C17.4328 35.2474 18.3381 33.4406 17.8867 32.7184C17.6464 32.3344 16.8644 32.7464 16.6178 31.8475C16.2847 30.6332 16.9776 28.9104 16.9878 28.1093C16.8009 28.1793 16.8276 28.3026 16.5593 28.3649C16.3838 27.602 16.6903 26.6293 16.8543 25.8792C17.0336 25.0654 17.1899 24.2567 17.3743 23.4506C17.8854 21.2077 17.8003 21.4531 18.9942 19.9159C19.1124 19.7633 19.218 19.6515 19.3095 19.4735L18.2186 19.4188C18.4398 18.647 20.3445 17.6247 21.3044 17.209C21.1875 17.0996 20.3852 16.9636 20.1143 16.8809C20.2771 16.6444 22.403 15.7544 22.8747 15.5192C23.4316 15.2407 24.5988 14.6495 24.3039 13.9171C24.1818 13.6132 23.9758 13.5509 23.8321 13.3424L25.4444 13.6501C26.5099 13.8192 28.0509 13.9222 29.1202 13.8395C29.7178 13.7938 30.3218 13.7111 30.9003 13.6781C30.6854 13.4174 28.8786 13.5255 28.4222 13.481C27.6618 13.406 27.2855 13.2343 26.7832 12.8758C26.3217 12.5464 25.9212 12.2769 25.5067 11.9082C25.3134 11.7365 25.1049 11.5585 24.8989 11.3919C24.5022 11.0715 23.5982 9.97933 23.3274 9.55847C22.4717 8.22851 22.0877 6.69892 22.3725 5.08796C22.4005 4.92775 22.5734 4.28947 22.539 4.21064C22.1818 4.37466 21.4392 5.49229 21.2396 6.09243C20.492 8.3315 21.1366 10.5299 22.534 12.2832C22.6509 12.4295 23.4647 13.1517 23.2638 13.2038V13.2076Z" fill="#DADDD9" stroke="#DADDD9" stroke-width="0.00441802" stroke-miterlimit="22.9256"/>
<path fill-rule="evenodd" clip-rule="evenodd" d="M23.1507 51.8236C22.7527 52.5497 22.3738 53.2286 21.9212 53.9254C20.6395 55.9 18.9662 57.7449 16.9942 59.0672C16.703 59.2618 16.2974 59.553 15.9223 59.647C15.6604 59.7132 14.5059 59.7945 14.4334 59.8403C14.2414 59.9573 13.813 60.4989 13.621 60.7087C13.3794 60.9732 13.4163 60.8715 13.4175 61.3381C13.4239 62.9224 13.8308 64.5816 14.9382 65.6649C15.059 65.7832 15.6986 66.3312 15.9185 66.3439L15.8855 65.5963L15.9897 65.7387C16.0762 65.9078 16.0889 65.9815 16.2313 66.1608C17.3235 67.5391 19.3896 66.0349 20.375 65.3255C21.1316 64.7813 21.1557 64.738 21.7343 64.0527C21.8652 63.8976 21.9669 63.7348 22.1055 63.5479C22.5811 62.902 22.8315 61.9522 23.1392 61.1105C23.2117 61.539 23.1418 61.984 23.1837 62.4011C23.5092 62.3082 23.8322 60.6795 23.911 60.2332C24.07 59.3381 24.0255 57.7767 24.1017 57.4639C24.3827 57.9064 24.5633 59.0978 24.5061 59.7043C24.3713 61.1118 23.9314 62.6655 23.2168 63.8188C22.89 64.3477 22.7196 64.5193 22.3179 64.9199C21.6618 65.5721 22.4844 65.3992 23.1265 65.3865C25.3414 65.3394 27.4826 64.6745 29.4292 63.717C31.3911 62.752 33.5221 61.0978 34.8572 59.4639C35.6531 58.4887 36.3779 57.6991 36.9971 56.4849L38.0282 54.0767C38.4504 52.9425 38.7949 51.7397 38.9412 50.4288C39.0581 49.3824 39.0963 47.1472 38.8509 46.1859C38.7898 46.1427 38.842 46.1974 38.7708 46.1096C38.7708 46.1096 38.7301 46.0473 38.7288 46.0448C38.397 45.5184 37.3251 44.519 36.9526 44.3957C36.964 47.198 36.0651 49.6431 34.8368 51.4816C34.5037 51.9813 33.1737 53.7843 32.1794 53.1956C31.236 52.6361 31.5348 50.542 31.5488 49.3328C31.5208 49.3621 31.5259 49.3532 31.4941 49.3977L31.2513 49.8948C30.6804 51.0811 29.5627 52.2826 28.3523 52.8218C27.4139 53.2388 26.4184 53.2286 25.9327 52.4581C25.3821 51.5859 25.6657 50.6539 25.7775 49.657C25.274 50.3004 24.295 52.008 23.1494 51.8275L23.1507 51.8236Z" fill="#DADDD9" stroke="#DADDD9" stroke-width="0.00441802" stroke-miterlimit="22.9256"/>
<path fill-rule="evenodd" clip-rule="evenodd" d="M40.0003 28.5124C39.9367 28.417 40.0003 27.218 39.999 26.993C39.9952 26.4958 39.9227 26.0622 39.7981 25.6096C39.5565 24.731 39.1878 24.0749 38.7059 23.546C38.2749 23.0717 37.6976 22.4563 36.9208 22.1385C35.4802 21.5472 34.5444 21.9795 34.2201 21.757C34.1744 21.3756 34.6054 21.3718 34.7656 21.1912C33.7383 21.3196 32.5799 22.2326 32.0561 23.1251C31.4509 24.1563 31.7929 24.3623 30.4133 26.1474C29.7751 26.9739 30.1908 27.5028 31.0237 28.0407C32.4973 28.9917 34.5329 28.5556 36.0333 27.9084C36.3473 27.7724 36.861 27.5321 37.2615 27.5804C37.9456 27.663 38.5165 28.6446 38.7364 29.2371C38.8394 29.5156 39.0022 30.2123 39.1535 30.3916C39.3976 30.2835 39.952 28.9498 40.0016 28.5162L40.0003 28.5124Z" fill="#5A696E"/>
<path fill-rule="evenodd" clip-rule="evenodd" d="M20.9739 25.1137C18.7857 25.4685 18.3012 28.2136 19.5091 30.0458C21.5753 33.1787 27.6695 33.2626 27.0541 27.6236C27.0108 27.2269 27.1138 27.2943 26.4552 27.2358C24.857 27.0947 24.9498 27.1239 23.733 26.1385C23.3871 25.8588 23.1099 25.5664 22.637 25.3401C22.1551 25.1086 21.5549 25.0209 20.9751 25.115L20.9739 25.1137Z" fill="#F13B2E"/>
<path fill-rule="evenodd" clip-rule="evenodd" d="M22.6331 22.6776C22.8938 23.4608 23.0502 23.9719 23.8334 24.5288C24.1297 24.7399 24.5098 24.8988 24.9498 24.9535C25.8093 25.0603 26.0356 24.834 26.3497 24.8315C26.4666 24.7132 26.6116 24.7386 26.9498 24.436C27.1278 24.2771 27.2639 24.1131 27.4152 23.8829C28.337 22.4741 27.9988 20.4512 26.7235 19.6031C25.1799 18.5771 22.3216 19.5396 22.6331 22.6776Z" fill="#10222E"/>
<path fill-rule="evenodd" clip-rule="evenodd" d="M22.6332 22.6776C22.3217 19.5408 25.1787 18.5771 26.7235 19.6032C27.9988 20.4512 28.337 22.4729 27.4152 23.8829C27.2639 24.1131 27.1279 24.2771 26.9499 24.436C26.6116 24.7386 26.468 24.7132 26.3497 24.8315C26.4514 24.8556 26.4069 24.8124 26.4731 24.9395L26.6892 25.4558C27.166 25.335 27.948 24.7005 28.2569 24.3038C28.6257 23.8308 28.9372 23.1684 29.0605 22.4029C29.3746 20.4589 28.6511 19.3908 27.4178 18.7322C25.0414 17.4658 21.3503 18.7233 21.5741 22.7208C21.9097 22.7513 22.3802 22.6191 22.6345 22.6763L22.6332 22.6776Z" fill="#DADDD9"/>
<path fill-rule="evenodd" clip-rule="evenodd" d="M33.1254 41.587C33.1254 42.5012 33.011 43.142 32.7122 43.9125C32.5037 44.4516 32.1909 45.4345 31.4776 45.2704C31.0021 45.1598 30.4108 44.3804 30.1718 43.9723C29.8666 43.4471 29.709 42.6016 29.4013 42.1541L28.8024 43.0174C28.3726 42.7694 27.6352 41.8273 27.3516 41.3556C27.0554 40.8597 26.5621 39.6391 26.2416 39.3415C25.9365 40.6842 27.3491 43.4344 28.4807 44.0142C28.8914 44.2253 29.0974 44.2189 29.4063 44.5279C29.8806 45.006 30.1057 45.7714 30.6257 46.1503C31.3263 46.6602 31.9824 46.7136 32.5278 46.0117C32.8927 45.5413 33.2297 44.7542 33.4153 44.0587C33.7217 42.9157 33.8273 41.5107 33.5005 40.3257C33.4255 40.0548 33.2297 39.4789 33.0796 39.3059C32.9512 39.8209 33.1254 40.9703 33.1254 41.587Z" fill="#DADDD9"/>
<path fill-rule="evenodd" clip-rule="evenodd" d="M10.5643 12.3278C10.872 12.8046 11.7366 13.598 12.1511 13.9019C13.3463 14.7792 14.2885 15.2547 15.7481 15.7086C16.9268 16.0748 17.4849 16.324 18.5771 15.7824C18.8391 15.6527 19.5613 15.2611 19.7202 15.1021L19.5918 15.0538C19.5842 15.05 19.5702 15.0449 19.5638 15.0411C19.5562 15.0373 19.5447 15.0322 19.5346 15.0284C19.4176 15.2433 18.3228 14.9902 18.0876 14.9432C15.5447 14.427 12.9712 13.3971 11.1784 11.542C10.9152 11.2699 10.5312 10.8236 10.207 10.7778C10.1841 11.0245 10.1829 11.2953 10.2324 11.5433C10.2795 11.7709 10.2782 12.0201 10.5656 12.329L10.5643 12.3278Z" fill="#C4CACA"/>
<path fill-rule="evenodd" clip-rule="evenodd" d="M22.1385 4.99132C21.8537 6.60228 22.4716 8.23232 23.3273 9.56228C23.5982 9.98314 24.5009 11.0753 24.8989 11.3958C25.1036 11.561 25.3134 11.7391 25.5066 11.912C25.9211 12.2807 26.3217 12.5503 26.7832 12.8796C27.2854 13.2381 27.6618 13.4098 28.4221 13.4848C29.1494 13.556 30.0725 13.5089 30.7795 13.6018L30.4781 13.4619C29.4393 12.98 28.8862 12.9215 27.6529 12.1853C26.6713 11.5992 26.2683 11.2686 25.5219 10.5273C24.7069 9.71867 23.958 8.69895 23.4952 7.64362C22.9535 6.40648 22.7908 5.54441 22.7374 4.04153C22.4424 4.14198 22.1563 4.54631 22.1372 4.99259L22.1385 4.99132Z" fill="#C4CACA"/>
<path fill-rule="evenodd" clip-rule="evenodd" d="M23.2829 13.1885C23.0515 13.0881 22.6891 13.0512 22.4386 12.9787C20.6357 12.46 19.1913 11.6526 17.785 10.5121C17.3667 10.1726 17.3184 10.0899 16.998 9.78988C16.7894 9.59534 16.0482 8.6163 15.8753 8.35184C15.1251 7.20242 15.0971 6.77012 14.6737 5.73005C14.6305 5.66266 14.5593 5.51008 14.5453 5.52916C14.6 7.03586 14.6813 7.96658 15.3412 9.09311C16.3215 10.7689 18.1207 12.3176 19.8562 13.2127C20.3191 13.4517 20.9205 13.6844 21.5422 13.6946C22.0546 13.7035 23.0286 13.5204 23.2816 13.1873L23.2829 13.1885Z" fill="#C4CACA"/>
<path fill-rule="evenodd" clip-rule="evenodd" d="M34.7656 21.1887C34.6054 21.3692 34.1744 21.3743 34.2202 21.7545C34.5457 21.977 35.4802 21.546 36.9208 22.1359C37.6977 22.4551 38.2736 23.0692 38.706 23.5434C39.1878 24.0724 39.5566 24.7285 39.7982 25.6071C39.9228 26.0597 39.9952 26.4933 39.999 26.9904C40.0003 27.2167 39.9367 28.4145 40.0003 28.5098C40.3665 27.5753 40.3729 26.6319 40.2432 25.5486C40.0702 24.0965 39.7333 22.9153 38.6487 22.0914C37.9558 21.565 37.2196 21.2027 36.299 21.0793C35.3899 20.9585 35.1547 21.1696 34.7656 21.1861V21.1887Z" fill="#99A2A6"/>
<path fill-rule="evenodd" clip-rule="evenodd" d="M33.9557 22.6076C33.1648 22.0469 32.1908 23.1417 32.6956 23.9414C33.1139 24.6039 33.8603 23.7659 33.8425 23.2434C33.8387 23.1239 33.7865 23.0323 33.8336 22.9052C33.8946 22.7386 33.962 22.8543 33.9557 22.6076Z" fill="#10222E"/>
<path fill-rule="evenodd" clip-rule="evenodd" d="M25.8538 20.3813C24.9155 20.5606 25.1723 21.9249 26.0903 21.7825C27.0032 21.6401 26.7858 20.2033 25.8538 20.3813Z" fill="#FEFDEF"/>
<path fill-rule="evenodd" clip-rule="evenodd" d="M29.7318 28.3674C30.2404 28.5671 30.6994 29.0401 31.1698 29.33C32.3434 30.056 33.7013 30.426 35.0415 29.9441C35.5297 29.7686 35.9938 29.5041 36.5037 29.3935L36.566 29.3808C36.3333 29.9644 36.0841 30.5023 35.7332 31.0274C35.5946 31.2143 35.4382 31.3974 35.2767 31.5639C34.6664 32.192 33.7382 32.7413 32.8393 32.7426C32.1006 32.7426 31.4699 32.4158 30.96 31.8958C30.0726 30.9905 29.7127 29.6046 29.7318 28.3674Z" fill="#5A696E"/>
</g>
<defs>
<linearGradient id="paint0_linear_262_2467" x1="50" y1="0" x2="0" y2="50" gradientUnits="userSpaceOnUse">
<stop stop-color="#FF3D57"/>
<stop offset="1" stop-color="#AA0C00"/>
</linearGradient>
<clipPath id="clip0_262_2467">
<rect width="50" height="50" rx="11" fill="white"/>
</clipPath>
</defs>
</svg>
